<svg width="1200" height="630" viewBox="0 0 1200 630" fill="none" xmlns="http://www.w3.org/2000/svg" role="img" aria-labelledby="title desc">
  <title id="title">LeadOps social preview</title>
  <desc id="desc">LeadOps AI lead operations studio preview image.</desc>
  <rect width="1200" height="630" fill="#050914"/>
  <rect x="78" y="82" width="1044" height="466" rx="34" fill="#0C1424" stroke="#1D2B46" stroke-width="2"/>
  <rect x="126" y="130" width="72" height="72" rx="18" fill="#071225"/>
  <path d="M145 174C145 163.507 153.507 155 164 155H170C180.493 155 189 146.493 189 136" stroke="#4F8CFF" stroke-width="7" stroke-linecap="round"/>
  <path d="M145 190C145 179.507 153.507 171 164 171H170C180.493 171 189 162.493 189 152" stroke="#22D3EE" stroke-width="7" stroke-linecap="round"/>
  <text x="126" y="274" fill="#FFFFFF" font-family="Inter, Segoe UI, Arial, sans-serif" font-size="76" font-weight="700">LeadOps</text>
  <text x="126" y="338" fill="#C6D3E7" font-family="Inter, Segoe UI, Arial, sans-serif" font-size="34">AI-powered lead response, qualification, follow-up, and booking systems.</text>
  <rect x="126" y="410" width="232" height="58" rx="14" fill="#4F8CFF"/>
  <text x="156" y="448" fill="#FFFFFF" font-family="Inter, Segoe UI, Arial, sans-serif" font-size="23" font-weight="700">Book more calls</text>
  <rect x="742" y="134" width="292" height="316" rx="24" fill="#071225" stroke="#1D2B46" stroke-width="2"/>
  <rect x="782" y="178" width="212" height="18" rx="9" fill="#4F8CFF"/>
  <rect x="782" y="224" width="156" height="18" rx="9" fill="#22D3EE"/>
  <rect x="782" y="270" width="188" height="18" rx="9" fill="#4F8CFF" opacity="0.65"/>
  <rect x="782" y="336" width="94" height="64" rx="16" fill="#12213A"/>
  <rect x="900" y="336" width="94" height="64" rx="16" fill="#12213A"/>
</svg>
