<svg xmlns="http://www.w3.org/2000/svg" width="1600" height="900" viewBox="0 0 1600 900" role="img" aria-labelledby="title desc">
  <title id="title">SignalOps lead response signal board</title>
  <desc id="desc">A dark premium dashboard-style background showing SignalOps lead response, intake, and follow-up metrics.</desc>
  <defs>
    <linearGradient id="bg" x1="0" y1="0" x2="1" y2="1"><stop offset="0" stop-color="#071126"/><stop offset="0.5" stop-color="#111A3A"/><stop offset="1" stop-color="#071126"/></linearGradient>
    <radialGradient id="glow" cx="72%" cy="20%" r="60%"><stop offset="0" stop-color="#328BFF" stop-opacity="0.24"/><stop offset="0.55" stop-color="#6F4DFF" stop-opacity="0.13"/><stop offset="1" stop-color="#071126" stop-opacity="0"/></radialGradient>
  </defs>
  <rect width="1600" height="900" fill="url(#bg)"/>
  <rect width="1600" height="900" fill="url(#glow)"/>
  <path d="M0 80H1600M0 160H1600M0 240H1600M0 320H1600M0 400H1600M0 480H1600M0 560H1600M0 640H1600M0 720H1600M0 800H1600M80 0V900M160 0V900M240 0V900M320 0V900M400 0V900M480 0V900M560 0V900M640 0V900M720 0V900M800 0V900M880 0V900M960 0V900M1040 0V900M1120 0V900M1200 0V900M1280 0V900M1360 0V900M1440 0V900M1520 0V900" stroke="#FFFFFF" stroke-opacity="0.07"/>
  <g transform="translate(720 110)">
    <rect width="680" height="560" rx="4" fill="#0B1024" fill-opacity="0.78" stroke="#328BFF" stroke-opacity="0.55" stroke-width="2"/>
    <text x="64" y="114" fill="#F8FBFF" font-family="Inter, Segoe UI, Arial, sans-serif" font-size="62" font-weight="760">SignalOps Board</text>
    <text x="66" y="154" fill="#D7E2F7" font-family="Inter, Segoe UI, Arial, sans-serif" font-size="22">Live lead response and intake view</text>
    <g transform="translate(64 206)">
      <rect width="230" height="126" rx="3" fill="#111A3A"/>
      <text x="38" y="80" fill="#F8FBFF" font-family="Inter, Segoe UI, Arial, sans-serif" font-size="56" font-weight="760">42s</text>
      <text x="39" y="109" fill="#D7E2F7" font-family="Inter, Segoe UI, Arial, sans-serif" font-size="20">median first reply</text>
    </g>
    <g transform="translate(344 206)">
      <rect width="230" height="126" rx="3" fill="#111A3A"/>
      <text x="38" y="80" fill="#F8FBFF" font-family="Inter, Segoe UI, Arial, sans-serif" font-size="56" font-weight="760">94%</text>
      <text x="39" y="109" fill="#D7E2F7" font-family="Inter, Segoe UI, Arial, sans-serif" font-size="20">follow-up coverage</text>
    </g>
    <g transform="translate(64 382)">
      <rect width="524" height="24" fill="#17264A"/><rect width="300" height="24" fill="#6F4DFF"/>
      <rect y="58" width="524" height="24" fill="#17264A"/><rect y="58" width="350" height="24" fill="#328BFF"/>
      <rect y="116" width="524" height="24" fill="#17264A"/><rect y="116" width="410" height="24" fill="#34C759"/>
    </g>
  </g>
  <g transform="translate(220 575)">
    <rect width="230" height="72" rx="4" fill="#6F4DFF"/>
    <text x="36" y="46" fill="#F8FBFF" font-family="Inter, Segoe UI, Arial, sans-serif" font-size="28" font-weight="760">AI response</text>
    <rect x="260" width="190" height="72" rx="4" fill="#328BFF"/>
    <text x="304" y="46" fill="#F8FBFF" font-family="Inter, Segoe UI, Arial, sans-serif" font-size="28" font-weight="760">Booked</text>
    <path d="M450 36H610C662 36 662 -42 720 -42" stroke="#34C759" stroke-width="8" stroke-linecap="round" fill="none"/>
  </g>
</svg>
