<svg aria-label="Envo AI worker logo" fill="none" viewBox="0 0 680 180" xmlns="http://www.w3.org/2000/svg">
  <defs>
    <linearGradient id="envo-logo-gradient" x1="34" x2="214" y1="42" y2="142" gradientUnits="userSpaceOnUse">
      <stop stop-color="#328BFF"/>
      <stop offset="0.52" stop-color="#4D63F6"/>
      <stop offset="1" stop-color="#7C3AED"/>
    </linearGradient>
  </defs>
  <g fill="url(#envo-logo-gradient)">
    <rect height="11" opacity="0.95" rx="5.5" width="26" x="31" y="52"/>
    <rect height="11" opacity="0.76" rx="5.5" width="42" x="14" y="84"/>
    <rect height="11" opacity="0.62" rx="5.5" width="23" x="35" y="115"/>
  </g>
  <path d="M108 128c8 7 20 11 35 12l-50 31c-6 4-12-2-10-9l14-38c3 2 7 3 11 4Z" fill="url(#envo-logo-gradient)"/>
  <g stroke="url(#envo-logo-gradient)" stroke-linecap="round" stroke-linejoin="round">
    <path d="M211 45h-80c-34 0-55 19-55 46s22 49 57 49h76" stroke-width="34"/>
    <path d="M131 92h78" stroke-width="34"/>
  </g>
  <text x="280" y="122" fill="#ffffff" font-family="Inter, ui-rounded, Avenir Next, Segoe UI, Arial, sans-serif" font-size="96" font-weight="850" letter-spacing="-2">Envo</text>
</svg>