<svg xmlns="http://www.w3.org/2000/svg" width="1200" height="630" viewBox="0 0 1200 630" role="img" aria-labelledby="title desc">
  <title id="title">Envo Preview social sharing image</title>
  <desc id="desc">Envo Preview Open Graph image for customer calls, texts, forms, DMs, follow-ups, and handoffs.</desc>
  <defs><linearGradient id="bg" x1="0" y1="0" x2="1" y2="1"><stop offset="0" stop-color="#111A3A"/><stop offset="0.55" stop-color="#17264A"/><stop offset="1" stop-color="#071126"/></linearGradient><radialGradient id="glow" cx="68%" cy="18%" r="58%"><stop offset="0" stop-color="#6F4DFF" stop-opacity="0.32"/><stop offset="0.48" stop-color="#328BFF" stop-opacity="0.16"/><stop offset="1" stop-color="#071126" stop-opacity="0"/></radialGradient><linearGradient id="boltLogo" x1="18" y1="10" x2="48" y2="56" gradientUnits="userSpaceOnUse"><stop stop-color="#6F4DFF"/><stop offset="0.45" stop-color="#328BFF"/><stop offset="1" stop-color="#d770ff"/></linearGradient></defs>
  <rect width="1200" height="630" fill="url(#bg)"/><rect width="1200" height="630" fill="url(#glow)"/>
  <path d="M0 116H1200M0 238H1200M0 360H1200M0 482H1200M150 0V630M360 0V630M570 0V630M780 0V630M990 0V630" stroke="#ffffff" stroke-opacity="0.055"/>
  <g transform="translate(72 70)">
    <circle cx="31" cy="31" r="28" fill="#328BFF" fill-opacity="0.12"/>
    <path d="M36.2 5.5 17.8 32.2h12.8l-4.2 23.3 20.6-30H34.2l2-20Z" fill="#18102d" fill-opacity="0.55"/>
    <path d="M36.2 5.5 17.8 32.2h12.8l-4.2 23.3 20.6-30H34.2l2-20Z" fill="none" stroke="url(#boltLogo)" stroke-width="5.4" stroke-linejoin="round"/>
    <path d="M22.5 13.6c-3.7 2-6.9 4.8-9.2 8.2M50.2 43.4c-2.4 4.1-6 7.3-10.3 9.4" stroke="url(#boltLogo)" stroke-width="2.5" stroke-linecap="round" opacity="0.58"/>
    <text x="82" y="41" fill="#F8FBFF" font-family="Inter, Segoe UI, Arial, sans-serif" font-size="38" font-weight="760">SignalOpsAI</text>
  </g>
  <g transform="translate(72 218)"><text fill="#F8FBFF" font-family="Inter, Segoe UI, Arial, sans-serif" font-size="64" font-weight="780"><tspan x="0" y="0">Preview Envo</tspan></text><text x="0" y="92" fill="#D7E2F7" font-family="Inter, Segoe UI, Arial, sans-serif" font-size="29" font-weight="520">Map calls, texts, forms, DMs, follow-up, and handoffs.</text></g>
  <g transform="translate(762 178)" fill="none" stroke-linecap="round" stroke-linejoin="round"><path d="M26 196H140C178 196 178 128 216 128H306" stroke="#328BFF" stroke-width="10"/><path d="M26 292H160C216 292 216 352 286 352H368" stroke="#6F4DFF" stroke-width="10"/><path d="M26 100H132C188 100 188 54 250 54H368" stroke="#8d6bff" stroke-width="10" opacity="0.85"/><circle cx="26" cy="100" r="18" fill="#111A3A" stroke="#8d6bff" stroke-width="8"/><circle cx="26" cy="196" r="18" fill="#111A3A" stroke="#328BFF" stroke-width="8"/><circle cx="26" cy="292" r="18" fill="#111A3A" stroke="#6F4DFF" stroke-width="8"/><rect x="368" y="22" width="190" height="64" rx="16" fill="#111A3A" stroke="#8d6bff" stroke-opacity="0.55"/><rect x="306" y="96" width="252" height="64" rx="16" fill="#111A3A" stroke="#328BFF" stroke-opacity="0.55"/><rect x="368" y="320" width="190" height="64" rx="16" fill="#111A3A" stroke="#6F4DFF" stroke-opacity="0.55"/></g>
  <text x="72" y="566" fill="#D7E2F7" font-family="Inter, Segoe UI, Arial, sans-serif" font-size="22">Preview Envo</text>
</svg>
